<svg width="140" height="141" viewBox="0 0 140 141" fill="none" xmlns="http://www.w3.org/2000/svg">
<mask id="path-1-inside-1_434_5663" fill="white">
<path fill-rule="evenodd" clip-rule="evenodd" d="M65.0855 0C60.6672 0 57.0855 3.58172 57.0855 8V20.9651H18.9951L32.1548 130.329C32.8803 136.358 37.9959 140.895 44.0688 140.895H96.8059C102.874 140.895 107.987 136.366 108.718 130.342L122 20.9651H83.778V8C83.778 3.58172 80.1963 0 75.778 0H65.0855Z"/>
</mask>
<path d="M57.0855 20.9651V23.9651H60.0855V20.9651H57.0855ZM18.9951 20.9651V17.9651H15.6125L16.0166 21.3235L18.9951 20.9651ZM32.1548 130.329L35.1333 129.97L35.1333 129.97L32.1548 130.329ZM108.718 130.342L111.696 130.703L111.696 130.703L108.718 130.342ZM122 20.9651L124.978 21.3267L125.386 17.9651H122V20.9651ZM83.778 20.9651H80.778V23.9651H83.778V20.9651ZM60.0855 8C60.0855 5.23858 62.3241 3 65.0855 3V-3C59.0104 -3 54.0855 1.92487 54.0855 8H60.0855ZM60.0855 20.9651V8H54.0855V20.9651H60.0855ZM18.9951 23.9651H57.0855V17.9651H18.9951V23.9651ZM35.1333 129.97L21.9736 20.6067L16.0166 21.3235L29.1763 130.687L35.1333 129.97ZM44.0688 137.895C39.5141 137.895 35.6774 134.493 35.1333 129.97L29.1763 130.687C30.0832 138.224 36.4777 143.895 44.0688 143.895V137.895ZM96.8059 137.895H44.0688V143.895H96.8059V137.895ZM105.74 129.98C105.192 134.498 101.357 137.895 96.8059 137.895V143.895C104.391 143.895 110.782 138.233 111.696 130.703L105.74 129.98ZM119.022 20.6035L105.74 129.98L111.696 130.703L124.978 21.3267L119.022 20.6035ZM83.778 23.9651H122V17.9651H83.778V23.9651ZM80.778 8V20.9651H86.778V8H80.778ZM75.778 3C78.5395 3 80.778 5.23857 80.778 8H86.778C86.778 1.92487 81.8532 -3 75.778 -3V3ZM65.0855 3H75.778V-3H65.0855V3Z" fill="#33FFCE" mask="url(#path-1-inside-1_434_5663)"/>
<line x1="46" y1="40.9741" x2="46" y2="116" stroke="#33FFCE" stroke-width="4" stroke-linecap="round"/>
<line x1="69.6104" y1="40.9741" x2="69.6103" y2="116" stroke="#33FFCE" stroke-width="4" stroke-linecap="round"/>
<line x1="93.2197" y1="40.9741" x2="93.2197" y2="116" stroke="#33FFCE" stroke-width="4" stroke-linecap="round"/>
<line x1="1.5" y1="22.5" x2="138.5" y2="22.5" stroke="#33FFCE" stroke-width="3" stroke-linecap="round"/>
</svg>