    <svg
          width="549"
          height="449"
          viewBox="0 0 549 449"
          fill="none"
          xmlns="http://www.w3.org/2000/svg"
        >
          <path
            fill-rule="evenodd"
            clip-rule="evenodd"
            d="M501.951 43.6743C527.875 43.6743 548.891 64.6903 548.891 90.6147V314.223C548.891 339.924 528.236 360.8 502.621 361.159L502.621 436.5C502.621 445.293 493.307 450.963 485.496 446.924L319.639 361.164H124.22C98.296 361.164 77.2801 340.148 77.2801 314.223V90.6147C77.2801 64.6902 98.296 43.6743 124.22 43.6743H501.951Z"
            fill="currentColor"
          />
          <rect
            width="315.595"
            height="30"
            rx="15"
            transform="matrix(-1 0 0 1 470.883 113.541)"
            fill="currentColor"
          />
          <rect
            width="292.104"
            height="30"
            rx="15"
            transform="matrix(-1 0 0 1 468.308 187.419)"
            fill="currentColor"
          />
          <rect
            width="175.216"
            height="30"
            rx="15"
            transform="matrix(-1 0 0 1 468.308 261.297)"
            fill="currentColor"
          />
          <path
            fill-rule="evenodd"
            clip-rule="evenodd"
            d="M54.8496 8.40283C28.9251 8.40283 7.90918 29.4188 7.90918 55.3433V278.952C7.90918 304.652 28.5638 325.529 54.1793 325.888L54.1793 401.229C54.1793 410.022 63.4934 415.692 71.3044 411.653L237.161 325.892H432.58C458.504 325.892 479.52 304.876 479.52 278.952V55.3432C479.52 29.4188 458.504 8.40283 432.58 8.40283H54.8496Z"
            fill="currentColor"
          />
          <path
            data-outline-chat
            d="M54.1793 325.888L61.6793 325.888L61.6793 318.492L54.2842 318.388L54.1793 325.888ZM54.1793 401.229L61.6793 401.229L61.6793 401.229L54.1793 401.229ZM71.3044 411.653L67.8596 404.991L67.8596 404.991L71.3044 411.653ZM237.161 325.892V318.392H235.337L233.717 319.23L237.161 325.892ZM15.4092 55.3433C15.4092 33.5609 33.0672 15.9028 54.8496 15.9028V0.902832C24.783 0.902832 0.40918 25.2767 0.40918 55.3433H15.4092ZM15.4092 278.952V55.3433H0.40918V278.952H15.4092ZM54.2842 318.388C32.7638 318.087 15.4092 300.546 15.4092 278.952H0.40918C0.40918 308.759 24.3638 332.971 54.0743 333.387L54.2842 318.388ZM61.6793 401.229L61.6793 325.888L46.6793 325.888L46.6793 401.229L61.6793 401.229ZM67.8596 404.991C65.0407 406.448 61.6793 404.402 61.6793 401.229L46.6793 401.229C46.6793 415.642 61.9462 424.935 74.7492 418.315L67.8596 404.991ZM233.717 319.23L67.8596 404.991L74.7492 418.315L240.606 332.554L233.717 319.23ZM432.58 318.392H237.161V333.392H432.58V318.392ZM472.02 278.952C472.02 300.734 454.362 318.392 432.58 318.392V333.392C462.646 333.392 487.02 309.018 487.02 278.952H472.02ZM472.02 55.3432V278.952H487.02V55.3432H472.02ZM432.58 15.9028C454.362 15.9028 472.02 33.5609 472.02 55.3432H487.02C487.02 25.2766 462.646 0.902832 432.58 0.902832V15.9028ZM54.8496 15.9028H432.58V0.902832H54.8496V15.9028Z"
            fill="currentFill"
          />
          <rect
            x="85.917"
            y="78.2695"
            width="315.595"
            height="30"
            rx="15"
            fill="currentFill"
          />
          <rect
            x="88.4922"
            y="152.147"
            width="292.104"
            height="30"
            rx="15"
            fill="currentFill"
          />
          <rect
            x="88.4922"
            y="226.025"
            width="175.216"
            height="30"
            rx="15"
            fill="currentFill"
          />
        </svg>