      <svg
          width="394"
          height="405"
          viewBox="0 0 394 405"
          fill="none"
          xmlns="http://www.w3.org/2000/svg"
        >
          <path
            fill-rule="evenodd"
            clip-rule="evenodd"
            d="M191.941 2.24451C194.902 -0.211072 199.192 -0.211057 202.153 2.24453L390.889 158.741C396.656 163.523 393.274 172.9 385.782 172.9H356.671V396.98C356.671 401.398 353.089 404.98 348.671 404.98H242.679V272.354C242.679 267.935 239.097 264.354 234.679 264.354H159.416C154.997 264.354 151.416 267.935 151.416 272.354V404.98H45.423C41.0047 404.98 37.423 401.398 37.423 396.98V172.9H8.31184C0.819704 172.9 -2.56192 163.523 3.20544 158.741L50.3142 119.679V47.3241C50.3142 42.9059 53.8959 39.3241 58.3142 39.3241H105.658C110.077 39.3241 113.658 42.9059 113.658 47.3241V67.1551L191.941 2.24451Z"
            fill="currentFill"
          />
        </svg>