  <svg
          width="396"
          height="406"
          viewBox="0 0 396 406"
          fill="none"
          xmlns="http://www.w3.org/2000/svg"
          data-logout-svg
        >
          <rect
            x="106.318"
            y="0.59668"
            width="289.081"
            height="404.577"
            rx="16"
            fill="currentFill"
            data-logout-door
          />
          <path
            fill-rule="evenodd"
            clip-rule="evenodd"
            d="M85.8202 147.713C85.8202 146.065 83.9384 145.124 82.62 146.114L10.5839 200.159C9.5176 200.959 9.5176 202.559 10.5839 203.359L82.62 257.405C83.9384 258.394 85.8202 257.453 85.8202 255.805L85.8202 229.081C85.8202 227.977 86.7157 227.081 87.8202 227.081L213.113 227.081C214.218 227.081 215.113 226.186 215.113 225.081L215.113 178.437C215.113 177.332 214.218 176.437 213.113 176.437L87.8202 176.437C86.7157 176.437 85.8202 175.541 85.8202 174.437L85.8202 147.713Z"
            fill="currentFill"
          />
          <path
            data-outline-arrow
            d="M85.8202 229.081L76.7812 229.081L85.8202 229.081ZM82.62 257.405L77.1953 264.635L82.62 257.405ZM85.8202 255.805L94.8593 255.805L85.8202 255.805ZM10.5839 203.359L16.0086 196.129L10.5839 203.359ZM16.0086 207.39L88.0446 153.344L77.1953 138.883L5.15927 192.929L16.0086 207.39ZM88.0446 250.174L16.0086 196.129L5.15927 210.589L77.1953 264.635L88.0446 250.174ZM76.7812 229.081L76.7812 255.805L94.8593 255.805L94.8593 229.081L76.7812 229.081ZM213.113 218.042L87.8202 218.042L87.8202 236.12L213.113 236.12L213.113 218.042ZM206.074 178.437L206.074 225.081L224.152 225.081L224.152 178.437L206.074 178.437ZM87.8202 185.476L213.113 185.476L213.113 167.398L87.8202 167.398L87.8202 185.476ZM76.7812 147.713L76.7812 174.437L94.8593 174.437L94.8593 147.713L76.7812 147.713ZM87.8202 167.398C91.7078 167.398 94.8593 170.549 94.8593 174.437L76.7812 174.437C76.7812 180.533 81.7235 185.476 87.8202 185.476L87.8202 167.398ZM224.152 178.437C224.152 172.34 219.21 167.398 213.113 167.398L213.113 185.476C209.225 185.476 206.074 182.324 206.074 178.437L224.152 178.437ZM213.113 236.12C219.21 236.12 224.152 231.178 224.152 225.081L206.074 225.081C206.074 221.194 209.226 218.042 213.113 218.042L213.113 236.12ZM94.8593 229.081C94.8593 232.969 91.7078 236.12 87.8202 236.12L87.8202 218.042C81.7235 218.042 76.7812 222.985 76.7812 229.081L94.8593 229.081ZM77.1953 264.635C84.4725 270.095 94.8593 264.902 94.8593 255.805L76.7812 255.805C76.7812 250.004 83.4043 246.693 88.0446 250.174L77.1953 264.635ZM88.0446 153.344C83.4043 156.825 76.7812 153.514 76.7812 147.713L94.8593 147.713C94.8593 138.616 84.4725 133.423 77.1953 138.883L88.0446 153.344ZM5.15927 192.929C-0.726267 197.345 -0.726266 206.174 5.15927 210.589L16.0086 196.129C19.7615 198.944 19.7615 204.574 16.0086 207.39L5.15927 192.929Z"
            fill="currentFill"
          />
        </svg>
