<svg width="51" height="48" viewBox="0 0 51 48" fill="none" xmlns="http://www.w3.org/2000/svg">
<path fill-rule="evenodd" clip-rule="evenodd" d="M28.8796 1.26984C28.8796 0.568527 28.311 0 27.6097 0H23.5755C22.8742 0 22.3056 0.568527 22.3056 1.26984V20.0954C22.3056 20.7967 21.7371 21.3652 21.0358 21.3652H2.21027C1.50896 21.3652 0.94043 21.9337 0.94043 22.6351L0.94043 26.6693C0.94043 27.3706 1.50896 27.9391 2.21027 27.9391H21.0358C21.7371 27.9391 22.3056 28.5077 22.3056 29.209V46.7302C22.3056 47.4315 22.8742 48 23.5755 48H27.6097C28.311 48 28.8796 47.4315 28.8796 46.7302V29.209C28.8796 28.5077 29.4481 27.9391 30.1494 27.9391H48.9749C49.6763 27.9391 50.2448 27.3706 50.2448 26.6693V22.6351C50.2448 21.9337 49.6763 21.3652 48.9749 21.3652H30.1494C29.4481 21.3652 28.8796 20.7967 28.8796 20.0954V1.26984Z" fill="#00B489"/>
</svg>
