<svg width="27" height="32" viewBox="0 0 27 32" fill="none" xmlns="http://www.w3.org/2000/svg">
<mask id="path-1-inside-1_321_5642" fill="white">
<path fill-rule="evenodd" clip-rule="evenodd" d="M13.4443 15.8943C17.8135 15.8943 21.3554 12.3524 21.3554 7.9832C21.3554 3.61404 17.8135 0.0721436 13.4443 0.0721436C9.07517 0.0721436 5.53327 3.61404 5.53327 7.9832C5.53327 12.3524 9.07517 15.8943 13.4443 15.8943ZM0.0395508 24.6306C0.0395508 19.9809 3.06353 16.0374 7.25212 14.6596C8.70152 16.1977 10.9367 17.1836 13.4443 17.1836C15.952 17.1836 18.1872 16.1977 19.6366 14.6596C23.8252 16.0374 26.8492 19.9808 26.8492 24.6306V29.8649C26.8492 31.0088 25.9219 31.9362 24.778 31.9362H2.1108C0.966883 31.9362 0.0395508 31.0088 0.0395508 29.8649V24.6306Z"/>
</mask>
<path d="M7.25212 14.6597L8.05177 13.9061L7.57255 13.3976L6.90879 13.6159L7.25212 14.6597ZM19.6366 14.6596L19.9799 13.6159L19.3161 13.3976L18.8369 13.9061L19.6366 14.6596ZM20.2566 7.9832C20.2566 11.7455 17.2067 14.7955 13.4443 14.7955V16.993C18.4203 16.993 22.4541 12.9592 22.4541 7.9832H20.2566ZM13.4443 1.1709C17.2067 1.1709 20.2566 4.22087 20.2566 7.9832H22.4541C22.4541 3.00722 18.4203 -1.02661 13.4443 -1.02661V1.1709ZM6.63203 7.9832C6.63203 4.22087 9.682 1.1709 13.4443 1.1709V-1.02661C8.46834 -1.02661 4.43451 3.00722 4.43451 7.9832H6.63203ZM13.4443 14.7955C9.682 14.7955 6.63203 11.7455 6.63203 7.9832H4.43451C4.43451 12.9592 8.46834 16.993 13.4443 16.993V14.7955ZM6.90879 13.6159C2.28284 15.1376 -1.05921 19.4924 -1.05921 24.6307H1.13831C1.13831 20.4694 3.84422 16.9373 7.59545 15.7034L6.90879 13.6159ZM13.4443 16.0848C11.2185 16.0848 9.27964 15.2091 8.05177 13.9061L6.45247 15.4132C8.12339 17.1864 10.6548 18.2824 13.4443 18.2824V16.0848ZM18.8369 13.9061C17.609 15.2091 15.6702 16.0848 13.4443 16.0848V18.2824C16.2338 18.2824 18.7653 17.1863 20.4362 15.4132L18.8369 13.9061ZM27.948 24.6307C27.948 19.4924 24.6059 15.1375 19.9799 13.6159L19.2932 15.7034C23.0445 16.9373 25.7505 20.4694 25.7505 24.6307H27.948ZM27.948 29.865V24.6307H25.7505V29.865H27.948ZM24.778 33.035C26.5287 33.035 27.948 31.6157 27.948 29.865H25.7505C25.7505 30.402 25.3151 30.8374 24.778 30.8374V33.035ZM2.1108 33.035H24.778V30.8374H2.1108V33.035ZM-1.05921 29.865C-1.05921 31.6157 0.360057 33.035 2.1108 33.035V30.8374C1.57371 30.8374 1.13831 30.402 1.13831 29.865H-1.05921ZM-1.05921 24.6307V29.865H1.13831V24.6307H-1.05921Z" fill="#33ffce" mask="url(#path-1-inside-1_321_5642)"/>
</svg>
