<svg width="32" height="33" viewBox="0 0 32 33" fill="none" xmlns="http://www.w3.org/2000/svg">
<path fill-rule="evenodd" clip-rule="evenodd" d="M22.4446 12.4212C22.4446 17.929 17.9797 22.3939 12.4719 22.3939C6.96416 22.3939 2.49925 17.929 2.49925 12.4212C2.49925 6.91345 6.96416 2.44853 12.4719 2.44853C17.9797 2.44853 22.4446 6.91345 22.4446 12.4212ZM19.7015 23.0392C19.2285 22.5662 18.4923 22.4986 17.8997 22.8089C16.277 23.6585 14.4306 24.1391 12.4719 24.1391C6.0003 24.1391 0.754028 18.8928 0.754028 12.4212C0.754028 5.94959 6.0003 0.703314 12.4719 0.703314C18.9435 0.703314 24.1898 5.94959 24.1898 12.4212C24.1898 14.855 23.4478 17.1155 22.1777 18.9888C21.7643 19.5986 21.7888 20.4278 22.3098 20.9488L30.6232 29.2622C31.1745 29.8136 31.1745 30.7075 30.6232 31.2588L30.2704 31.6116C29.7191 32.1629 28.8252 32.1629 28.2738 31.6116L19.7015 23.0392Z" fill="#33FFCE"/>
</svg>
