<svg width="98" height="98" viewBox="0 0 98 98" fill="none" xmlns="http://www.w3.org/2000/svg">
<path fill-rule="evenodd" clip-rule="evenodd" d="M41.6142 97.3881H56.3855C59.1469 97.3881 61.3855 95.1495 61.3855 92.3881V83.5355C62.4606 83.1526 63.5121 82.7203 64.5373 82.2413L70.7591 88.4789C72.7128 90.4375 75.8855 90.4375 77.8391 88.4789L88.2858 78.0058C90.2325 76.0542 90.2325 72.8952 88.2858 70.9436L82.0515 64.6935C82.5323 63.6608 82.966 62.6014 83.3498 61.5183H92.1646C94.926 61.5183 97.1646 59.2797 97.1646 56.5183L97.1646 41.7045C97.1646 38.9431 94.926 36.7045 92.1646 36.7045H83.146C82.765 35.6833 82.3394 34.6841 81.8716 33.7092L88.2855 27.2791C90.2322 25.3275 90.2322 22.1686 88.2855 20.217L77.8389 9.74386C75.8852 7.78527 72.7125 7.78527 70.7589 9.74386L64.1539 16.3656C63.2504 15.9563 62.327 15.583 61.3855 15.2477V5.83551C61.3855 3.07409 59.1469 0.835522 56.3855 0.835522H41.6142C38.8528 0.835522 36.6142 3.07409 36.6142 5.83552V15.4531C35.7333 15.7835 34.8689 16.1473 34.0224 16.5428L27.2403 9.74353C25.2866 7.78495 22.1139 7.78495 20.1603 9.74353L9.71358 20.2167C7.76692 22.1683 7.76692 25.3272 9.71358 27.2788L16.5092 34.0916C16.112 34.9449 15.7469 35.8164 15.4156 36.7045H5.83563C3.07421 36.7045 0.835635 38.9431 0.835635 41.7045V56.5183C0.835635 59.2797 3.07421 61.5183 5.83563 61.5183H15.2117C15.5479 62.4669 15.9223 63.3972 16.3331 64.3074L9.71331 70.944C7.76665 72.8956 7.76665 76.0545 9.71331 78.0061L20.16 88.4792C22.1136 90.4378 25.2864 90.4378 27.24 88.4792L33.6427 82.0603C34.6099 82.5261 35.6012 82.9502 36.6142 83.3301V92.3881C36.6142 95.1495 38.8528 97.3881 41.6142 97.3881ZM57.3855 92.3881C57.3855 92.9403 56.9378 93.3881 56.3855 93.3881H41.6142C41.0619 93.3881 40.6142 92.9403 40.6142 92.3881V81.1916C40.6142 80.7432 40.3151 80.3512 39.8863 80.22C37.6747 79.5435 35.5643 78.6343 33.5835 77.5209C33.1844 77.2966 32.6831 77.3584 32.3597 77.6825L24.408 85.6544C24.0173 86.0461 23.3827 86.0461 22.992 85.6544L12.5453 75.1812C12.156 74.7909 12.156 74.1591 12.5453 73.7688L20.6686 65.625C20.9839 65.3088 21.05 64.8227 20.8418 64.4276C19.8166 62.4827 18.984 60.42 18.3697 58.265C18.2448 57.8268 17.8483 57.5183 17.3926 57.5183H5.83563C5.28335 57.5183 4.83563 57.0705 4.83563 56.5183V41.7045C4.83563 41.1522 5.28335 40.7045 5.83563 40.7045H17.5577C18.0066 40.7045 18.399 40.4048 18.5297 39.9753C19.1653 37.8862 20.007 35.8872 21.031 34.002C21.2464 33.6055 21.1826 33.1128 20.8639 32.7933L12.5456 24.4539C12.1563 24.0636 12.1563 23.4318 12.5456 23.0415L22.9923 12.5684C23.383 12.1767 24.0175 12.1767 24.4083 12.5684L32.72 20.9011C33.0399 21.2219 33.5348 21.286 33.9325 21.069C35.8116 20.0433 37.8041 19.2002 39.8863 18.5632C40.3152 18.4321 40.6142 18.04 40.6142 17.5916V5.83552C40.6142 5.28323 41.0619 4.83552 41.6142 4.83552H56.3855C56.9378 4.83552 57.3855 5.28323 57.3855 5.83551V17.4253C57.3855 17.8805 57.6934 18.2767 58.1311 18.4021C60.2793 19.0176 62.3357 19.8515 64.2746 20.8784C64.6708 21.0882 65.1592 21.0218 65.4757 20.7044L73.5909 12.5687C73.9816 12.177 74.6161 12.177 75.0069 12.5687L85.4535 23.0418C85.8429 23.4322 85.8429 24.0639 85.4535 24.4543L77.4975 32.4305C77.1754 32.7533 77.1141 33.2524 77.3367 33.6504C78.4486 35.638 79.3565 37.7558 80.0319 39.9753C80.1625 40.4048 80.5549 40.7045 81.0038 40.7045H92.1646C92.7168 40.7045 93.1646 41.1522 93.1646 41.7045V56.5183C93.1646 57.0706 92.7168 57.5183 92.1646 57.5183H81.1689C80.7132 57.5183 80.3168 57.8268 80.1918 58.265C79.5399 60.5518 78.6424 62.7346 77.5296 64.7829C77.3142 65.1795 77.3779 65.6722 77.6966 65.9917L85.4538 73.7685C85.8431 74.1588 85.8431 74.7906 85.4538 75.1809L75.0071 85.654C74.6164 86.0458 73.9818 86.0458 73.5911 85.654L65.8398 77.8831C65.5198 77.5623 65.025 77.4982 64.6273 77.7152C62.5856 78.8294 60.4101 79.7282 58.1311 80.3811C57.6934 80.5065 57.3855 80.9027 57.3855 81.3579V92.3881ZM49.28 27.8145C37.393 27.8145 27.7568 37.4752 27.7568 49.3922C27.7568 61.3092 37.393 70.9699 49.28 70.9699C61.1669 70.9699 70.8032 61.3092 70.8032 49.3922C70.8032 37.4752 61.1669 27.8145 49.28 27.8145Z" fill="#33FFCE"/>
</svg>
