<svg width="19" height="21" viewBox="0 0 19 21" fill="none" xmlns="http://www.w3.org/2000/svg">
<path d="M18.2001 0.848845V6.30273H17.6651C17.3481 5.04453 16.9963 4.14297 16.61 3.59808C16.2236 3.04328 15.6936 2.60241 15.0199 2.27548C14.6434 2.09715 13.9846 2.00798 13.0434 2.00798H11.5425V17.5523C11.5425 18.5827 11.5969 19.2266 11.7059 19.4842C11.8248 19.7418 12.0477 19.9697 12.3747 20.1678C12.7115 20.356 13.1672 20.4502 13.7418 20.4502H14.4106V21H3.85946V20.4502H4.52819C5.11272 20.4502 5.5833 20.3461 5.93996 20.1381C6.19755 19.9994 6.40065 19.7616 6.54925 19.4248C6.65823 19.187 6.71272 18.5628 6.71272 17.5523V2.00798H5.25637C3.89909 2.00798 2.91333 2.29529 2.29908 2.86991C1.43716 3.67238 0.892267 4.81666 0.664402 6.30273H0.0996943V0.848845H18.2001Z" fill="#33FFCE"/>
</svg>
