<svg width="24" height="30" viewBox="0 0 24 30" fill="none" xmlns="http://www.w3.org/2000/svg">
<mask id="path-1-inside-1_81_1936" fill="white">
<path fill-rule="evenodd" clip-rule="evenodd" d="M11.9999 14.8218C15.9111 14.8218 19.0818 11.6511 19.0818 7.73983C19.0818 3.82857 15.9111 0.657867 11.9999 0.657867C8.08861 0.657867 4.91791 3.82857 4.91791 7.73983C4.91791 11.6511 8.08861 14.8218 11.9999 14.8218ZM0 23.7424C0 19.2863 2.77731 15.4789 6.69537 13.9568C7.99287 15.1952 9.88847 15.976 11.9999 15.976C14.1113 15.976 16.007 15.1952 17.3045 13.9567C21.2226 15.4788 24 19.2863 24 23.7424V27.1112C24 28.2551 23.0727 29.1825 21.9287 29.1825H2.07125C0.927332 29.1825 0 28.2551 0 27.1112V23.7424Z"/>
</mask>
<path d="M6.69537 13.9568L7.45402 13.162L6.94867 12.6796L6.29748 12.9326L6.69537 13.9568ZM17.3045 13.9567L17.7023 12.9325L17.0511 12.6795L16.5458 13.1619L17.3045 13.9567ZM17.9831 7.73983C17.9831 11.0443 15.3043 13.723 11.9999 13.723V15.9206C16.518 15.9206 20.1806 12.2579 20.1806 7.73983H17.9831ZM11.9999 1.75663C15.3043 1.75663 17.9831 4.4354 17.9831 7.73983H20.1806C20.1806 3.22175 16.518 -0.440891 11.9999 -0.440891V1.75663ZM6.01667 7.73983C6.01667 4.4354 8.69544 1.75663 11.9999 1.75663V-0.440891C7.48179 -0.440891 3.81915 3.22175 3.81915 7.73983H6.01667ZM11.9999 13.723C8.69544 13.723 6.01667 11.0443 6.01667 7.73983H3.81915C3.81915 12.2579 7.48179 15.9206 11.9999 15.9206V13.723ZM6.29748 12.9326C1.97107 14.6134 -1.09876 18.818 -1.09876 23.7424H1.09876C1.09876 19.7546 3.58356 16.3445 7.09326 14.981L6.29748 12.9326ZM11.9999 14.8772C10.1548 14.8772 8.53564 14.1944 7.45402 13.162L5.93672 14.7516C7.45009 16.1961 9.62218 17.0747 11.9999 17.0747V14.8772ZM16.5458 13.1619C15.4642 14.1944 13.845 14.8772 11.9999 14.8772V17.0747C14.3776 17.0747 16.5497 16.1961 18.0631 14.7515L16.5458 13.1619ZM25.0988 23.7424C25.0988 18.818 22.0288 14.6133 17.7023 12.9325L16.9066 14.9809C20.4164 16.3444 22.9012 19.7545 22.9012 23.7424H25.0988ZM25.0988 27.1112V23.7424H22.9012V27.1112H25.0988ZM21.9287 30.2812C23.6795 30.2812 25.0988 28.862 25.0988 27.1112H22.9012C22.9012 27.6483 22.4658 28.0837 21.9287 28.0837V30.2812ZM2.07125 30.2812H21.9287V28.0837H2.07125V30.2812ZM-1.09876 27.1112C-1.09876 28.862 0.320505 30.2812 2.07125 30.2812V28.0837C1.53416 28.0837 1.09876 27.6483 1.09876 27.1112H-1.09876ZM-1.09876 23.7424V27.1112H1.09876V23.7424H-1.09876Z" fill="#33FFCE" mask="url(#path-1-inside-1_81_1936)"/>
</svg>
